<svg height="512pt" viewBox="0 0 512 512" width="512pt" xmlns="http://www.w3.org/2000/svg"><path d="m54.769531 28.792969c-12.140625 0-22.015625 9.875-22.015625 22.015625 0 12.136718 9.875 22.011718 22.015625 22.011718 12.136719 0 22.011719-9.875 22.011719-22.011718 0-12.140625-9.875-22.015625-22.011719-22.015625zm0 29.023437c-3.867187 0-7.011719-3.144531-7.011719-7.007812 0-3.867188 3.144532-7.011719 7.011719-7.011719 3.863281 0 7.011719 3.144531 7.011719 7.011719 0 3.863281-3.148438 7.007812-7.011719 7.007812zm0 0"/><path d="m110.816406 28.792969c-12.140625 0-22.015625 9.875-22.015625 22.015625 0 12.136718 9.878907 22.011718 22.015625 22.011718 12.136719 0 22.011719-9.875 22.011719-22.011718 0-12.140625-9.875-22.015625-22.011719-22.015625zm0 29.023437c-3.867187 0-7.011718-3.144531-7.011718-7.007812 0-3.867188 3.144531-7.011719 7.011718-7.011719 3.863282 0 7.011719 3.144531 7.011719 7.011719 0 3.863281-3.148437 7.007812-7.011719 7.007812zm0 0"/><path d="m166.863281 28.792969c-12.140625 0-22.015625 9.875-22.015625 22.015625 0 12.136718 9.875 22.011718 22.015625 22.011718 12.136719 0 22.011719-9.875 22.011719-22.011718 0-12.140625-9.875-22.015625-22.011719-22.015625zm0 29.023437c-3.867187 0-7.011719-3.144531-7.011719-7.007812 0-3.867188 3.144532-7.011719 7.011719-7.011719 3.863281 0 7.011719 3.144531 7.011719 7.011719 0 3.863281-3.144531 7.007812-7.011719 7.007812zm0 0"/><path d="m478.984375 0h-445.972656c-18.203125 0-33.011719 14.808594-33.011719 33.011719v445.972656c0 18.203125 14.808594 33.015625 33.011719 33.015625h445.972656c18.203125 0 33.015625-14.8125 33.015625-33.015625v-113.632813c0-4.144531-3.359375-7.503906-7.503906-7.503906-4.140625 0-7.5 3.359375-7.5 7.503906v113.632813c0 9.933594-8.078125 18.011719-18.011719 18.011719h-445.972656c-9.929688 0-18.007813-8.078125-18.007813-18.011719v-376.945313h481.992188v216.976563c0 4.140625 3.359375 7.5 7.503906 7.5 4.140625 0 7.5-3.359375 7.5-7.5v-286.003906c0-18.203125-14.808594-33.011719-33.015625-33.011719zm18.011719 87.035156h-481.992188v-54.023437c0-9.929688 8.078125-18.007813 18.007813-18.007813h445.972656c9.933594 0 18.011719 8.078125 18.011719 18.007813zm0 0"/><path d="m461.476562 154.929688c0-13.082032-10.640624-23.722657-23.71875-23.722657h-364.636718c-13.078125 0-23.71875 10.640625-23.71875 23.722657v44.0625c0 4.144531 3.359375 7.5 7.5 7.5 4.144531 0 7.503906-3.355469 7.503906-7.5v-44.0625c0-4.808594 3.910156-8.71875 8.714844-8.71875h364.636718c4.804688 0 8.714844 3.910156 8.714844 8.71875v137.320312c0 4.804688-3.910156 8.714844-8.714844 8.714844h-23.613281l-76.894531-86.660156c-2.246094-2.527344-5.46875-4.035157-8.851562-4.136719-3.378907-.113281-6.6875 1.210937-9.078126 3.601562l-40.730468 40.710938-54.867188-61.832031c-2.242187-2.53125-5.46875-4.039063-8.847656-4.140626-3.378906-.085937-6.6875 1.210938-9.082031 3.601563l-108.90625 108.855469h-23.765625c-4.804688 0-8.714844-3.910156-8.714844-8.714844v-45.921875c0-4.144531-3.359375-7.503906-7.503906-7.503906-4.140625 0-7.5 3.359375-7.5 7.503906v45.921875c0 13.078125 10.640625 23.71875 23.71875 23.71875h364.636718c13.078126 0 23.71875-10.640625 23.71875-23.71875zm-343.367187 146.035156 96.28125-96.234375 72.996094 82.265625c2.75 3.101562 7.492187 3.382812 10.589843.632812 3.097657-2.75 3.382813-7.492187.632813-10.589844l-10.042969-11.316406 39.351563-39.332031 66.171875 74.574219zm0 0"/><path d="m73.117188 336.972656c-13.078126 0-23.714844 10.636719-23.714844 23.710938v73.59375c0 13.078125 10.636718 23.714844 23.714844 23.714844h145.105468c13.074219 0 23.714844-10.636719 23.714844-23.714844v-73.59375c0-13.074219-10.640625-23.710938-23.714844-23.710938zm153.816406 23.710938v73.59375c0 4.804687-3.910156 8.710937-8.710938 8.710937h-145.105468c-4.804688 0-8.710938-3.90625-8.710938-8.710937v-73.59375c0-4.800782 3.90625-8.710938 8.710938-8.710938h145.105468c4.800782 0 8.710938 3.910156 8.710938 8.710938zm0 0"/><path d="m292.65625 336.972656c-13.078125 0-23.714844 10.636719-23.714844 23.710938v73.59375c0 13.078125 10.636719 23.714844 23.714844 23.714844h145.105469c13.074219 0 23.714843-10.636719 23.714843-23.714844v-73.59375c0-13.074219-10.640624-23.710938-23.714843-23.710938zm153.816406 23.710938v73.59375c0 4.804687-3.910156 8.710937-8.710937 8.710937h-145.105469c-4.804688 0-8.710938-3.90625-8.710938-8.710937v-73.59375c0-4.800782 3.90625-8.710938 8.710938-8.710938h145.105469c4.800781 0 8.710937 3.910156 8.710937 8.710938zm0 0"/><path d="m87.660156 380.273438h20.28125c4.144532 0 7.5-3.355469 7.5-7.5 0-4.144532-3.355468-7.503907-7.5-7.503907h-20.28125c-4.144531 0-7.503906 3.359375-7.503906 7.503907 0 4.144531 3.359375 7.5 7.503906 7.5zm0 0"/><path d="m87.660156 405.6875h10.546875c4.140625 0 7.5-3.355469 7.5-7.5s-3.359375-7.5-7.5-7.5h-10.546875c-4.144531 0-7.503906 3.355469-7.503906 7.5s3.359375 7.5 7.503906 7.5zm0 0"/><path d="m203.679688 390.6875h-28.003907c-4.144531 0-7.503906 3.355469-7.503906 7.5s3.359375 7.5 7.503906 7.5h28.003907c4.144531 0 7.5-3.355469 7.5-7.5s-3.355469-7.5-7.5-7.5zm0 0"/><path d="m133.667969 380.273438h68.011719c4.140624 0 7.5-3.355469 7.5-7.5 0-4.144532-3.359376-7.503907-7.5-7.503907h-68.011719c-4.144531 0-7.5 3.359375-7.5 7.503907 0 4.144531 3.355469 7.5 7.5 7.5zm0 0"/><path d="m201.679688 414.691406h-20.285157c-4.140625 0-7.5 3.355469-7.5 7.5 0 4.144532 3.359375 7.503906 7.5 7.503906h20.285157c4.140624 0 7.5-3.359374 7.5-7.503906 0-4.144531-3.359376-7.5-7.5-7.5zm0 0"/><path d="m155.671875 414.691406h-68.011719c-4.144531 0-7.503906 3.355469-7.503906 7.5 0 4.144532 3.359375 7.503906 7.503906 7.503906h68.011719c4.140625 0 7.5-3.359374 7.5-7.503906 0-4.144531-3.359375-7.5-7.5-7.5zm0 0"/><path d="m121.460938 405.6875h29.210937c4.140625 0 7.5-3.355469 7.5-7.5s-3.359375-7.5-7.5-7.5h-29.210937c-4.140626 0-7.5 3.355469-7.5 7.5s3.359374 7.5 7.5 7.5zm0 0"/><path d="m307.199219 380.273438h20.28125c4.144531 0 7.5-3.355469 7.5-7.5 0-4.144532-3.355469-7.503907-7.5-7.503907h-20.28125c-4.144531 0-7.503907 3.359375-7.503907 7.503907 0 4.144531 3.359376 7.5 7.503907 7.5zm0 0"/><path d="m307.199219 405.6875h10.546875c4.140625 0 7.5-3.355469 7.5-7.5s-3.359375-7.5-7.5-7.5h-10.546875c-4.144531 0-7.503907 3.355469-7.503907 7.5s3.359376 7.5 7.503907 7.5zm0 0"/><path d="m423.21875 390.6875h-28.003906c-4.144532 0-7.503906 3.355469-7.503906 7.5s3.359374 7.5 7.503906 7.5h28.003906c4.140625 0 7.5-3.355469 7.5-7.5s-3.359375-7.5-7.5-7.5zm0 0"/><path d="m353.207031 380.273438h68.011719c4.140625 0 7.5-3.355469 7.5-7.5 0-4.144532-3.359375-7.503907-7.5-7.503907h-68.011719c-4.144531 0-7.503906 3.359375-7.503906 7.503907 0 4.144531 3.359375 7.5 7.503906 7.5zm0 0"/><path d="m421.21875 414.691406h-20.285156c-4.140625 0-7.5 3.355469-7.5 7.5 0 4.144532 3.359375 7.503906 7.5 7.503906h20.285156c4.140625 0 7.5-3.359374 7.5-7.503906 0-4.144531-3.359375-7.5-7.5-7.5zm0 0"/><path d="m375.210938 414.691406h-68.011719c-4.144531 0-7.503907 3.355469-7.503907 7.5 0 4.144532 3.359376 7.503906 7.503907 7.503906h68.011719c4.140624 0 7.5-3.359374 7.5-7.503906 0-4.144531-3.359376-7.5-7.5-7.5zm0 0"/><path d="m341 405.6875h29.210938c4.140624 0 7.5-3.355469 7.5-7.5s-3.359376-7.5-7.5-7.5h-29.210938c-4.140625 0-7.5 3.355469-7.5 7.5s3.359375 7.5 7.5 7.5zm0 0"/><path d="m409.324219 186.78125c0-15.75-12.8125-28.566406-28.566407-28.566406-15.75 0-28.566406 12.816406-28.566406 28.566406 0 15.753906 12.816406 28.570312 28.566406 28.570312 15.753907 0 28.566407-12.816406 28.566407-28.570312zm-42.128907 0c0-7.480469 6.082032-13.5625 13.5625-13.5625 7.480469 0 13.566407 6.082031 13.566407 13.5625s-6.085938 13.566406-13.566407 13.566406c-7.480468 0-13.5625-6.085937-13.5625-13.566406zm0 0"/></svg>